<?xml version="1.0" encoding="UTF-8"?>
<svg id="Capa_2" data-name="Capa 2" xmlns="http://www.w3.org/2000/svg" xmlns:xlink="http://www.w3.org/1999/xlink" viewBox="0 0 673.34 656.45">
  <defs>
    <style>
      .cls-1 {
        fill: url(#linear-gradient-2);
      }

      .cls-2 {
        fill: url(#linear-gradient);
      }
    </style>
    <linearGradient id="linear-gradient" x1="225.25" y1="331.84" x2="448.08" y2="331.84" gradientUnits="userSpaceOnUse">
      <stop offset="0" stop-color="#fff" stop-opacity=".2"/>
      <stop offset=".03" stop-color="#fff" stop-opacity=".28"/>
      <stop offset=".08" stop-color="#fff" stop-opacity=".48"/>
      <stop offset=".09" stop-color="#fff" stop-opacity=".5"/>
      <stop offset="1" stop-color="#fff"/>
    </linearGradient>
    <linearGradient id="linear-gradient-2" x1="0" y1="328.23" x2="673.34" y2="328.23" xlink:href="#linear-gradient"/>
  </defs>
  <g id="Graphic_Element" data-name="Graphic Element">
    <g>
      <path class="cls-2" d="m336.67,443.26c-61.43,0-111.41-49.98-111.41-111.42s49.98-111.41,111.41-111.41,111.42,49.98,111.42,111.41-49.98,111.42-111.42,111.42Zm0-204.9c-51.55,0-93.48,41.94-93.48,93.48s41.94,93.48,93.48,93.48,93.48-41.94,93.48-93.48-41.94-93.48-93.48-93.48Z"/>
      <path class="cls-1" d="m427.41,656.45l-38.55-55.45c-34.49,6.66-69.9,6.66-104.39,0l-38.55,55.45-106.47-51.27,19.32-64.73c-26.54-22.68-48.89-50.7-65.09-81.59l-67.39,4.43L0,348.08l62.69-25.27c1.14-35.41,8.92-69.59,23.16-101.76l-45.46-49.91,73.68-92.39,58.84,33.26c28.34-21.17,59.91-36.39,94-45.32L277.58,0h118.17l10.68,66.69c34.09,8.93,65.66,24.15,94,45.32l58.84-33.26,73.68,92.39-45.46,49.91c14.25,32.17,22.03,66.35,23.16,101.76l62.69,25.27-26.29,115.21-67.39-4.43c-16.2,30.9-38.55,58.91-65.09,81.59l19.32,64.74-106.47,51.27Zm-266.41-60.79l78.92,38.01,36.61-52.65,5.84,1.26c35.78,7.72,72.81,7.72,108.58,0l5.84-1.26,36.61,52.65,78.92-38.01-18.35-61.47,4.63-3.78c28.16-22.99,51.57-52.34,67.71-84.87l2.66-5.35,63.99,4.21,19.49-85.4-59.54-24-.06-5.98c-.4-36.99-8.51-72.6-24.09-105.82l-2.54-5.42,43.18-47.41-54.61-68.48-55.9,31.59-4.72-3.68c-29.1-22.72-61.99-38.58-97.74-47.12l-5.82-1.39-10.14-63.34h-87.59l-10.14,63.34-5.82,1.39c-35.75,8.54-68.64,24.4-97.74,47.12l-4.72,3.68-55.89-31.59-54.61,68.48,43.18,47.41-2.54,5.42c-15.58,33.23-23.69,68.83-24.09,105.82l-.06,5.98-59.54,24,19.49,85.4,63.99-4.21,2.66,5.35c16.14,32.53,39.55,61.88,67.71,84.87l4.63,3.78-18.35,61.47Z"/>
    </g>
  </g>
</svg>