<?xml version="1.0" encoding="UTF-8"?>
<svg id="Capa_2" data-name="Capa 2" xmlns="http://www.w3.org/2000/svg" viewBox="0 0 36.5 39.2">
  <defs>
    <style>
      .cls-1 {
        fill: #fff;
      }

      .cls-2 {
        fill: #c3002f;
      }

      .cls-3 {
        fill: #dd0031;
      }
    </style>
  </defs>
  <g id="Capa_1-2" data-name="Capa 1">
    <g>
      <polygon class="cls-3" points="18.25 0 18.25 0 18.25 0 0 6.51 2.78 30.64 18.25 39.2 18.25 39.2 18.25 39.2 33.72 30.64 36.5 6.51 18.25 0"/>
      <polygon class="cls-2" points="18.25 0 18.25 4.35 18.25 4.33 18.25 24.19 18.25 24.19 18.25 39.2 18.25 39.2 33.72 30.64 36.5 6.51 18.25 0"/>
      <path class="cls-1" d="m18.25,4.33L6.84,29.91h4.25l2.29-5.72h9.68l2.29,5.72h4.25L18.25,4.33h0Zm3.33,16.33h-6.66l3.33-8.02,3.33,8.02Z"/>
    </g>
  </g>
</svg>